%TF.GenerationSoftware,KiCad,Pcbnew,10.0.3*%
%TF.CreationDate,2026-06-12T11:32:15-05:00*%
%TF.ProjectId,PCBCard,50434243-6172-4642-9e6b-696361645f70,rev?*%
%TF.SameCoordinates,Original*%
%TF.FileFunction,Copper,L2,Bot*%
%TF.FilePolarity,Positive*%
%FSLAX46Y46*%
G04 Gerber Fmt 4.6, Leading zero omitted, Abs format (unit mm)*
G04 Created by KiCad (PCBNEW 10.0.3) date 2026-06-12 11:32:15*
%MOMM*%
%LPD*%
G01*
G04 APERTURE LIST*
%TA.AperFunction,SMDPad,CuDef*%
%ADD10R,5.100000X5.100000*%
%TD*%
%TA.AperFunction,SMDPad,CuDef*%
%ADD11C,17.800000*%
%TD*%
%TA.AperFunction,ViaPad*%
%ADD12C,0.600000*%
%TD*%
%TA.AperFunction,Conductor*%
%ADD13C,0.250000*%
%TD*%
G04 APERTURE END LIST*
D10*
%TO.P,BT1,1,+_1*%
%TO.N,VCC*%
X160482500Y-98761850D03*
X134882500Y-98761850D03*
D11*
%TO.P,BT1,2,-_2*%
%TO.N,GND*%
X147682500Y-98761850D03*
%TD*%
D12*
%TO.N,VCC*%
X138107500Y-97265250D03*
X155317800Y-105972450D03*
X117937600Y-112148650D03*
X113775000Y-108053450D03*
X104389200Y-98639250D03*
%TO.N,GND*%
X145776000Y-82301150D03*
X107299758Y-85628692D03*
X117669800Y-113858650D03*
X145772400Y-115137750D03*
X140897700Y-105309050D03*
X118175000Y-111154350D03*
X117375000Y-108780150D03*
%TO.N,/SDA*%
X104567500Y-83292050D03*
X118446000Y-105864150D03*
X153775000Y-84366850D03*
%TO.N,Net-(U1-~{INT})*%
X144822400Y-111070150D03*
X151575000Y-110953450D03*
%TO.N,/SCL*%
X106908400Y-84353450D03*
X118975000Y-96420050D03*
%TO.N,Net-(U3-LA)*%
X107075000Y-82953450D03*
X107275000Y-87053450D03*
%TO.N,Net-(U3-LB)*%
X114675000Y-94153450D03*
X105475000Y-86253450D03*
%TD*%
%TO.N,VCC*%
D13*
X160482500Y-101638550D02*
X159651700Y-101638550D01*
X122934000Y-112148650D02*
X117937600Y-112148650D01*
X134882500Y-100200150D02*
X134882500Y-101638550D01*
X104389200Y-98639250D02*
X104389200Y-98667650D01*
X134882500Y-101638550D02*
X141243400Y-107999450D01*
X160482500Y-98761850D02*
X160482500Y-101638550D01*
X153290800Y-107999450D02*
X155317800Y-105972450D01*
X134882500Y-99517050D02*
X135855700Y-99517050D01*
X135855700Y-99517050D02*
X138107500Y-97265250D01*
X104389200Y-98667650D02*
X113775000Y-108053450D01*
X134882500Y-98761850D02*
X134882500Y-99517050D01*
X134882500Y-99517050D02*
X134882500Y-100200150D01*
X141243400Y-107999450D02*
X153290800Y-107999450D01*
X134882500Y-100200150D02*
X122934000Y-112148650D01*
X159651700Y-101638550D02*
X155317800Y-105972450D01*
%TO.N,GND*%
X119071000Y-107084150D02*
X117375000Y-108780150D01*
X119071000Y-97399934D02*
X119071000Y-107084150D01*
X107299758Y-85628692D02*
X119071000Y-97399934D01*
%TO.N,/SDA*%
X149039100Y-79630950D02*
X108228600Y-79630950D01*
X104567500Y-91985650D02*
X104567500Y-83292050D01*
X108228600Y-79630950D02*
X104567500Y-83292050D01*
X153775000Y-84366850D02*
X149039100Y-79630950D01*
X118446000Y-105864150D02*
X104567500Y-91985650D01*
%TO.N,Net-(U1-~{INT})*%
X151458300Y-111070150D02*
X151575000Y-110953450D01*
X144822400Y-111070150D02*
X151458300Y-111070150D01*
%TO.N,/SCL*%
X118975000Y-96420050D02*
X106908400Y-84353450D01*
%TO.N,Net-(U3-LA)*%
X107075000Y-82953450D02*
X106283400Y-83745050D01*
X106283400Y-83745050D02*
X106283400Y-86061850D01*
X106283400Y-86061850D02*
X107275000Y-87053450D01*
%TO.N,Net-(U3-LB)*%
X107371696Y-94153450D02*
X114675000Y-94153450D01*
X105475000Y-86253450D02*
X105475000Y-92256754D01*
X105475000Y-92256754D02*
X107371696Y-94153450D01*
%TD*%
%TA.AperFunction,Conductor*%
%TO.N,GND*%
G36*
X184777211Y-73754028D02*
G01*
X185269924Y-73771626D01*
X185278735Y-73772257D01*
X185766734Y-73824723D01*
X185775495Y-73825982D01*
X186258503Y-73913125D01*
X186267139Y-73915004D01*
X186742705Y-74036386D01*
X186751185Y-74038876D01*
X186813667Y-74059672D01*
X187216866Y-74193869D01*
X187225160Y-74196962D01*
X187678602Y-74384785D01*
X187686653Y-74388462D01*
X188012022Y-74551329D01*
X188125551Y-74608158D01*
X188133298Y-74612388D01*
X188555420Y-74862843D01*
X188562843Y-74867614D01*
X188887377Y-75092942D01*
X188966010Y-75147538D01*
X188973082Y-75152831D01*
X189355258Y-75460808D01*
X189361932Y-75466592D01*
X189721152Y-75801038D01*
X189727411Y-75807297D01*
X190061857Y-76166517D01*
X190067642Y-76173194D01*
X190375614Y-76555363D01*
X190380911Y-76562439D01*
X190660827Y-76965594D01*
X190665610Y-76973036D01*
X190868721Y-77315363D01*
X190916052Y-77395134D01*
X190920294Y-77402903D01*
X191139987Y-77841796D01*
X191143664Y-77849847D01*
X191331487Y-78303289D01*
X191334580Y-78311583D01*
X191489571Y-78777258D01*
X191492065Y-78785751D01*
X191613443Y-79261303D01*
X191615325Y-79269953D01*
X191702467Y-79752954D01*
X191703726Y-79761715D01*
X191756192Y-80249714D01*
X191756824Y-80258543D01*
X191774421Y-80751238D01*
X191774500Y-80755664D01*
X191774500Y-116751235D01*
X191774421Y-116755661D01*
X191756824Y-117248356D01*
X191756192Y-117257185D01*
X191703726Y-117745184D01*
X191702467Y-117753945D01*
X191615325Y-118236946D01*
X191613443Y-118245596D01*
X191492065Y-118721148D01*
X191489571Y-118729641D01*
X191334580Y-119195316D01*
X191331487Y-119203610D01*
X191143664Y-119657052D01*
X191139987Y-119665103D01*
X190920294Y-120103996D01*
X190916052Y-120111765D01*
X190665613Y-120533858D01*
X190660827Y-120541305D01*
X190380911Y-120944460D01*
X190375607Y-120951546D01*
X190067654Y-121333692D01*
X190061857Y-121340382D01*
X189727411Y-121699602D01*
X189721152Y-121705861D01*
X189361932Y-122040307D01*
X189355242Y-122046104D01*
X188973096Y-122354057D01*
X188966010Y-122359361D01*
X188562855Y-122639277D01*
X188555408Y-122644063D01*
X188133315Y-122894502D01*
X188125546Y-122898744D01*
X187686653Y-123118437D01*
X187678602Y-123122114D01*
X187225160Y-123309937D01*
X187216866Y-123313030D01*
X186751191Y-123468021D01*
X186742698Y-123470515D01*
X186267146Y-123591893D01*
X186258496Y-123593775D01*
X185775495Y-123680917D01*
X185766734Y-123682176D01*
X185278735Y-123734642D01*
X185269906Y-123735274D01*
X184777212Y-123752871D01*
X184772786Y-123752950D01*
X110777214Y-123752950D01*
X110772788Y-123752871D01*
X110280093Y-123735274D01*
X110271264Y-123734642D01*
X109783265Y-123682176D01*
X109774504Y-123680917D01*
X109291503Y-123593775D01*
X109282853Y-123591893D01*
X108807301Y-123470515D01*
X108798808Y-123468021D01*
X108333133Y-123313030D01*
X108324839Y-123309937D01*
X107871397Y-123122114D01*
X107863346Y-123118437D01*
X107424453Y-122898744D01*
X107416691Y-122894506D01*
X106994586Y-122644060D01*
X106987144Y-122639277D01*
X106583989Y-122359361D01*
X106576913Y-122354064D01*
X106194744Y-122046092D01*
X106188067Y-122040307D01*
X105828847Y-121705861D01*
X105822588Y-121699602D01*
X105488142Y-121340382D01*
X105482358Y-121333708D01*
X105174381Y-120951532D01*
X105169088Y-120944460D01*
X105119580Y-120873156D01*
X104889164Y-120541293D01*
X104884393Y-120533870D01*
X104633938Y-120111748D01*
X104629705Y-120103996D01*
X104410012Y-119665103D01*
X104406335Y-119657052D01*
X104218512Y-119203610D01*
X104215419Y-119195316D01*
X104060426Y-118729635D01*
X104057934Y-118721148D01*
X104039465Y-118648789D01*
X103936554Y-118245589D01*
X103934674Y-118236946D01*
X103847532Y-117753945D01*
X103846273Y-117745184D01*
X103793807Y-117257185D01*
X103793176Y-117248374D01*
X103775579Y-116755661D01*
X103775500Y-116751235D01*
X103775500Y-112069803D01*
X117137100Y-112069803D01*
X117137100Y-112227496D01*
X117167861Y-112382139D01*
X117167864Y-112382151D01*
X117228202Y-112527822D01*
X117228209Y-112527835D01*
X117315810Y-112658938D01*
X117315813Y-112658942D01*
X117427307Y-112770436D01*
X117427311Y-112770439D01*
X117558414Y-112858040D01*
X117558427Y-112858047D01*
X117704098Y-112918385D01*
X117704103Y-112918387D01*
X117858753Y-112949149D01*
X117858756Y-112949150D01*
X117858758Y-112949150D01*
X118016444Y-112949150D01*
X118016445Y-112949149D01*
X118171097Y-112918387D01*
X118316779Y-112858044D01*
X118411059Y-112795048D01*
X118477736Y-112774170D01*
X118479950Y-112774150D01*
X122995607Y-112774150D01*
X123056029Y-112762131D01*
X123116452Y-112750113D01*
X123149792Y-112736302D01*
X123230286Y-112702962D01*
X123296169Y-112658939D01*
X123332733Y-112634508D01*
X123419858Y-112547383D01*
X123419859Y-112547381D01*
X123426925Y-112540315D01*
X123426928Y-112540311D01*
X124975936Y-110991303D01*
X144021900Y-110991303D01*
X144021900Y-111148996D01*
X144052661Y-111303639D01*
X144052664Y-111303651D01*
X144113002Y-111449322D01*
X144113009Y-111449335D01*
X144200610Y-111580438D01*
X144200613Y-111580442D01*
X144312107Y-111691936D01*
X144312111Y-111691939D01*
X144443214Y-111779540D01*
X144443227Y-111779547D01*
X144588898Y-111839885D01*
X144588903Y-111839887D01*
X144743553Y-111870649D01*
X144743556Y-111870650D01*
X144743558Y-111870650D01*
X144901244Y-111870650D01*
X144901245Y-111870649D01*
X145055897Y-111839887D01*
X145201579Y-111779544D01*
X145295859Y-111716548D01*
X145362536Y-111695670D01*
X145364750Y-111695650D01*
X151250358Y-111695650D01*
X151297810Y-111705089D01*
X151341503Y-111723187D01*
X151341506Y-111723187D01*
X151341511Y-111723189D01*
X151496153Y-111753949D01*
X151496156Y-111753950D01*
X151496158Y-111753950D01*
X151653844Y-111753950D01*
X151653845Y-111753949D01*
X151808497Y-111723187D01*
X151954179Y-111662844D01*
X152085289Y-111575239D01*
X152196789Y-111463739D01*
X152284394Y-111332629D01*
X152344737Y-111186947D01*
X152375500Y-111032292D01*
X152375500Y-110874608D01*
X152375500Y-110874605D01*
X152375499Y-110874603D01*
X152344738Y-110719960D01*
X152344737Y-110719953D01*
X152332735Y-110690977D01*
X152284397Y-110574277D01*
X152284390Y-110574264D01*
X152196789Y-110443161D01*
X152196786Y-110443157D01*
X152085292Y-110331663D01*
X152085288Y-110331660D01*
X151954185Y-110244059D01*
X151954172Y-110244052D01*
X151808501Y-110183714D01*
X151808489Y-110183711D01*
X151653845Y-110152950D01*
X151653842Y-110152950D01*
X151496158Y-110152950D01*
X151496155Y-110152950D01*
X151341510Y-110183711D01*
X151341498Y-110183714D01*
X151195827Y-110244052D01*
X151195814Y-110244059D01*
X151064711Y-110331660D01*
X151064707Y-110331663D01*
X150988040Y-110408331D01*
X150926717Y-110441816D01*
X150900359Y-110444650D01*
X145364750Y-110444650D01*
X145297711Y-110424965D01*
X145295859Y-110423752D01*
X145201584Y-110360759D01*
X145201572Y-110360752D01*
X145055901Y-110300414D01*
X145055889Y-110300411D01*
X144901245Y-110269650D01*
X144901242Y-110269650D01*
X144743558Y-110269650D01*
X144743555Y-110269650D01*
X144588910Y-110300411D01*
X144588898Y-110300414D01*
X144443227Y-110360752D01*
X144443214Y-110360759D01*
X144312111Y-110448360D01*
X144312107Y-110448363D01*
X144200613Y-110559857D01*
X144200610Y-110559861D01*
X144113009Y-110690964D01*
X144113002Y-110690977D01*
X144052664Y-110836648D01*
X144052661Y-110836660D01*
X144021900Y-110991303D01*
X124975936Y-110991303D01*
X134110332Y-101856906D01*
X134133142Y-101844451D01*
X134153838Y-101828724D01*
X134163312Y-101827977D01*
X134171653Y-101823423D01*
X134197578Y-101825277D01*
X134223492Y-101823235D01*
X134231865Y-101827729D01*
X134241345Y-101828407D01*
X134262154Y-101843985D01*
X134285055Y-101856276D01*
X134291646Y-101866062D01*
X134297278Y-101870279D01*
X134306410Y-101884376D01*
X134309859Y-101890585D01*
X134328188Y-101934836D01*
X134362415Y-101986059D01*
X134365240Y-101990288D01*
X134365243Y-101990292D01*
X134396641Y-102037283D01*
X134488086Y-102128728D01*
X134488108Y-102128748D01*
X140757539Y-108398179D01*
X140757542Y-108398183D01*
X140844667Y-108485308D01*
X140895890Y-108519534D01*
X140947114Y-108553762D01*
X140947115Y-108553762D01*
X140947116Y-108553763D01*
X141020790Y-108584279D01*
X141020794Y-108584280D01*
X141027607Y-108587102D01*
X141060948Y-108600913D01*
X141121371Y-108612931D01*
X141181793Y-108624950D01*
X153352407Y-108624950D01*
X153412829Y-108612931D01*
X153473252Y-108600913D01*
X153506592Y-108587102D01*
X153587086Y-108553762D01*
X153638309Y-108519534D01*
X153689533Y-108485308D01*
X153776658Y-108398183D01*
X153776659Y-108398181D01*
X153783725Y-108391115D01*
X153783728Y-108391111D01*
X155376597Y-106798241D01*
X155437918Y-106764758D01*
X155439928Y-106764339D01*
X155551297Y-106742187D01*
X155696979Y-106681844D01*
X155828089Y-106594239D01*
X155939589Y-106482739D01*
X156027194Y-106351629D01*
X156087537Y-106205947D01*
X156109658Y-106094732D01*
X156142040Y-106032825D01*
X156143535Y-106031303D01*
X159874471Y-102300369D01*
X159935794Y-102266884D01*
X159962152Y-102264050D01*
X160544107Y-102264050D01*
X160544108Y-102264049D01*
X160664952Y-102240013D01*
X160778786Y-102192861D01*
X160881233Y-102124408D01*
X160968358Y-102037283D01*
X161036811Y-101934836D01*
X161054134Y-101893015D01*
X161055840Y-101888897D01*
X161099681Y-101834493D01*
X161165975Y-101812428D01*
X161170401Y-101812349D01*
X163080371Y-101812349D01*
X163080372Y-101812349D01*
X163139983Y-101805941D01*
X163274831Y-101755646D01*
X163390046Y-101669396D01*
X163476296Y-101554181D01*
X163526591Y-101419333D01*
X163533000Y-101359723D01*
X163532999Y-96163978D01*
X163526591Y-96104367D01*
X163476296Y-95969519D01*
X163476295Y-95969518D01*
X163476293Y-95969514D01*
X163390047Y-95854305D01*
X163390044Y-95854302D01*
X163274835Y-95768056D01*
X163274828Y-95768052D01*
X163139982Y-95717758D01*
X163139983Y-95717758D01*
X163080383Y-95711351D01*
X163080381Y-95711350D01*
X163080373Y-95711350D01*
X163080364Y-95711350D01*
X157884629Y-95711350D01*
X157884623Y-95711351D01*
X157825016Y-95717758D01*
X157690171Y-95768052D01*
X157690164Y-95768056D01*
X157574955Y-95854302D01*
X157574952Y-95854305D01*
X157488706Y-95969514D01*
X157488702Y-95969521D01*
X157438408Y-96104367D01*
X157432001Y-96163966D01*
X157432001Y-96163973D01*
X157432000Y-96163985D01*
X157432000Y-101359720D01*
X157432001Y-101359726D01*
X157438408Y-101419333D01*
X157488702Y-101554178D01*
X157488706Y-101554185D01*
X157574952Y-101669394D01*
X157574955Y-101669397D01*
X157690164Y-101755643D01*
X157690171Y-101755647D01*
X157735118Y-101772411D01*
X157825017Y-101805941D01*
X157884627Y-101812350D01*
X158293948Y-101812349D01*
X158360986Y-101832033D01*
X158406741Y-101884837D01*
X158416685Y-101953996D01*
X158387660Y-102017552D01*
X158381628Y-102024030D01*
X155259003Y-105146655D01*
X155197680Y-105180140D01*
X155195514Y-105180591D01*
X155084308Y-105202711D01*
X155084298Y-105202714D01*
X154938627Y-105263052D01*
X154938614Y-105263059D01*
X154807511Y-105350660D01*
X154807507Y-105350663D01*
X154696013Y-105462157D01*
X154696010Y-105462161D01*
X154608409Y-105593264D01*
X154608402Y-105593277D01*
X154548064Y-105738948D01*
X154548061Y-105738958D01*
X154525941Y-105850164D01*
X154493556Y-105912075D01*
X154492005Y-105913653D01*
X153068029Y-107337631D01*
X153006706Y-107371116D01*
X152980348Y-107373950D01*
X152003784Y-107373950D01*
X151936745Y-107354265D01*
X151890990Y-107301461D01*
X151881046Y-107232303D01*
X151910071Y-107168747D01*
X151948940Y-107138738D01*
X152116003Y-107056351D01*
X152648988Y-106748632D01*
X152649013Y-106748616D01*
X153160725Y-106406701D01*
X153648985Y-106032046D01*
X154111707Y-105626250D01*
X154152527Y-105585429D01*
X147682500Y-99115403D01*
X141212472Y-105585429D01*
X141253293Y-105626250D01*
X141716014Y-106032046D01*
X142204274Y-106406701D01*
X142715986Y-106748616D01*
X142716011Y-106748632D01*
X143248996Y-107056351D01*
X143416060Y-107138738D01*
X143467479Y-107186043D01*
X143485161Y-107253639D01*
X143463491Y-107320063D01*
X143409349Y-107364227D01*
X143361216Y-107373950D01*
X141553852Y-107373950D01*
X141486813Y-107354265D01*
X141466171Y-107337631D01*
X136152570Y-102024030D01*
X136119085Y-101962707D01*
X136124069Y-101893015D01*
X136165941Y-101837082D01*
X136231405Y-101812665D01*
X136240251Y-101812349D01*
X137480371Y-101812349D01*
X137480372Y-101812349D01*
X137539983Y-101805941D01*
X137674831Y-101755646D01*
X137790046Y-101669396D01*
X137876296Y-101554181D01*
X137926591Y-101419333D01*
X137933000Y-101359723D01*
X137932999Y-98375700D01*
X137952684Y-98308662D01*
X137969313Y-98288025D01*
X138083155Y-98174183D01*
X138144476Y-98140700D01*
X138214168Y-98145684D01*
X138270101Y-98187556D01*
X138294518Y-98253020D01*
X138294569Y-98269975D01*
X138282500Y-98454135D01*
X138282500Y-99069562D01*
X138322752Y-99683710D01*
X138403083Y-100293886D01*
X138403085Y-100293897D01*
X138523146Y-100897486D01*
X138523150Y-100897504D01*
X138682442Y-101491989D01*
X138682444Y-101491997D01*
X138880270Y-102074771D01*
X138880274Y-102074782D01*
X139115794Y-102643377D01*
X139387998Y-103195353D01*
X139695717Y-103728338D01*
X139695733Y-103728363D01*
X140037648Y-104240075D01*
X140412303Y-104728335D01*
X140818106Y-105191064D01*
X140858919Y-105231877D01*
X147328946Y-98761850D01*
X147328946Y-98761849D01*
X148036053Y-98761849D01*
X148036053Y-98761850D01*
X154506079Y-105231877D01*
X154506080Y-105231877D01*
X154546900Y-105191057D01*
X154952696Y-104728335D01*
X155327351Y-104240075D01*
X155669266Y-103728363D01*
X155669282Y-103728338D01*
X155977001Y-103195353D01*
X156249205Y-102643377D01*
X156484725Y-102074782D01*
X156484729Y-102074771D01*
X156682555Y-101491997D01*
X156682557Y-101491989D01*
X156841849Y-100897504D01*
X156841853Y-100897486D01*
X156961914Y-100293897D01*
X156961916Y-100293886D01*
X157042247Y-99683710D01*
X157082500Y-99069562D01*
X157082500Y-98454137D01*
X157042247Y-97839989D01*
X156961916Y-97229813D01*
X156961914Y-97229802D01*
X156841853Y-96626213D01*
X156841849Y-96626195D01*
X156682557Y-96031710D01*
X156682555Y-96031702D01*
X156484729Y-95448928D01*
X156484725Y-95448917D01*
X156249205Y-94880322D01*
X155977001Y-94328346D01*
X155669282Y-93795361D01*
X155669266Y-93795336D01*
X155327351Y-93283624D01*
X154952696Y-92795364D01*
X154546893Y-92332635D01*
X154506080Y-92291822D01*
X148036053Y-98761849D01*
X147328946Y-98761849D01*
X140858919Y-92291822D01*
X140858918Y-92291822D01*
X140818128Y-92332612D01*
X140818101Y-92332641D01*
X140412303Y-92795364D01*
X140037648Y-93283624D01*
X139695733Y-93795336D01*
X139695717Y-93795361D01*
X139387998Y-94328346D01*
X139115794Y-94880322D01*
X138880274Y-95448917D01*
X138880270Y-95448928D01*
X138682444Y-96031702D01*
X138682442Y-96031710D01*
X138573066Y-96439904D01*
X138536701Y-96499564D01*
X138473854Y-96530093D01*
X138405839Y-96522371D01*
X138341001Y-96495514D01*
X138340989Y-96495511D01*
X138186345Y-96464750D01*
X138186342Y-96464750D01*
X138056999Y-96464750D01*
X137989960Y-96445065D01*
X137944205Y-96392261D01*
X137932999Y-96340750D01*
X137932999Y-96163979D01*
X137932998Y-96163973D01*
X137932997Y-96163966D01*
X137926591Y-96104367D01*
X137876296Y-95969519D01*
X137876295Y-95969518D01*
X137876293Y-95969514D01*
X137790047Y-95854305D01*
X137790044Y-95854302D01*
X137674835Y-95768056D01*
X137674828Y-95768052D01*
X137539982Y-95717758D01*
X137539983Y-95717758D01*
X137480383Y-95711351D01*
X137480381Y-95711350D01*
X137480373Y-95711350D01*
X137480364Y-95711350D01*
X132284629Y-95711350D01*
X132284623Y-95711351D01*
X132225016Y-95717758D01*
X132090171Y-95768052D01*
X132090164Y-95768056D01*
X131974955Y-95854302D01*
X131974952Y-95854305D01*
X131888706Y-95969514D01*
X131888702Y-95969521D01*
X131838408Y-96104367D01*
X131832001Y-96163966D01*
X131832001Y-96163973D01*
X131832000Y-96163985D01*
X131832000Y-101359720D01*
X131832001Y-101359726D01*
X131838408Y-101419333D01*
X131888702Y-101554178D01*
X131888706Y-101554185D01*
X131974952Y-101669394D01*
X131974955Y-101669397D01*
X132090164Y-101755643D01*
X132090171Y-101755647D01*
X132165940Y-101783907D01*
X132221874Y-101825778D01*
X132246291Y-101891242D01*
X132231440Y-101959515D01*
X132210288Y-101987770D01*
X122711229Y-111486831D01*
X122649906Y-111520316D01*
X122623548Y-111523150D01*
X118479950Y-111523150D01*
X118412911Y-111503465D01*
X118411059Y-111502252D01*
X118316784Y-111439259D01*
X118316772Y-111439252D01*
X118171101Y-111378914D01*
X118171089Y-111378911D01*
X118016445Y-111348150D01*
X118016442Y-111348150D01*
X117858758Y-111348150D01*
X117858755Y-111348150D01*
X117704110Y-111378911D01*
X117704098Y-111378914D01*
X117558427Y-111439252D01*
X117558414Y-111439259D01*
X117427311Y-111526860D01*
X117427307Y-111526863D01*
X117315813Y-111638357D01*
X117315810Y-111638361D01*
X117228209Y-111769464D01*
X117228202Y-111769477D01*
X117167864Y-111915148D01*
X117167861Y-111915160D01*
X117137100Y-112069803D01*
X103775500Y-112069803D01*
X103775500Y-99423930D01*
X103795185Y-99356891D01*
X103847989Y-99311136D01*
X103917147Y-99301192D01*
X103968392Y-99320828D01*
X104010021Y-99348644D01*
X104010023Y-99348645D01*
X104010027Y-99348647D01*
X104155698Y-99408985D01*
X104155703Y-99408987D01*
X104231463Y-99424056D01*
X104293372Y-99456440D01*
X104294951Y-99457992D01*
X112949205Y-108112246D01*
X112982690Y-108173569D01*
X112983141Y-108175736D01*
X113005261Y-108286939D01*
X113005264Y-108286951D01*
X113065602Y-108432622D01*
X113065609Y-108432635D01*
X113153210Y-108563738D01*
X113153213Y-108563742D01*
X113264707Y-108675236D01*
X113264711Y-108675239D01*
X113395814Y-108762840D01*
X113395827Y-108762847D01*
X113541498Y-108823185D01*
X113541503Y-108823187D01*
X113696153Y-108853949D01*
X113696156Y-108853950D01*
X113696158Y-108853950D01*
X113853844Y-108853950D01*
X113853845Y-108853949D01*
X114008497Y-108823187D01*
X114154179Y-108762844D01*
X114285289Y-108675239D01*
X114396789Y-108563739D01*
X114484394Y-108432629D01*
X114544737Y-108286947D01*
X114575500Y-108132292D01*
X114575500Y-107974608D01*
X114575500Y-107974605D01*
X114575499Y-107974603D01*
X114544738Y-107819960D01*
X114544737Y-107819953D01*
X114544735Y-107819948D01*
X114484397Y-107674277D01*
X114484390Y-107674264D01*
X114396789Y-107543161D01*
X114396786Y-107543157D01*
X114285292Y-107431663D01*
X114285288Y-107431660D01*
X114154185Y-107344059D01*
X114154172Y-107344052D01*
X114008501Y-107283714D01*
X114008489Y-107283711D01*
X113897286Y-107261591D01*
X113835375Y-107229206D01*
X113833796Y-107227655D01*
X105222046Y-98615905D01*
X105188561Y-98554582D01*
X105188110Y-98552415D01*
X105168561Y-98454135D01*
X105158937Y-98405753D01*
X105110171Y-98288020D01*
X105098597Y-98260077D01*
X105098590Y-98260064D01*
X105010989Y-98128961D01*
X105010986Y-98128957D01*
X104899492Y-98017463D01*
X104899488Y-98017460D01*
X104768385Y-97929859D01*
X104768372Y-97929852D01*
X104622701Y-97869514D01*
X104622689Y-97869511D01*
X104468045Y-97838750D01*
X104468042Y-97838750D01*
X104310358Y-97838750D01*
X104310355Y-97838750D01*
X104155710Y-97869511D01*
X104155698Y-97869514D01*
X104010027Y-97929852D01*
X104010016Y-97929858D01*
X103968390Y-97957672D01*
X103901712Y-97978549D01*
X103834332Y-97960064D01*
X103787643Y-97908085D01*
X103775500Y-97854569D01*
X103775500Y-92331496D01*
X103795185Y-92264457D01*
X103847989Y-92218702D01*
X103917147Y-92208758D01*
X103980703Y-92237783D01*
X104004586Y-92265670D01*
X104010090Y-92274457D01*
X104013188Y-92281936D01*
X104037527Y-92318361D01*
X104038555Y-92319900D01*
X104038561Y-92319909D01*
X104081641Y-92384382D01*
X104081644Y-92384386D01*
X104173086Y-92475828D01*
X104173108Y-92475848D01*
X117620205Y-105922945D01*
X117653690Y-105984268D01*
X117654141Y-105986435D01*
X117676261Y-106097639D01*
X117676264Y-106097651D01*
X117736602Y-106243322D01*
X117736609Y-106243335D01*
X117824210Y-106374438D01*
X117824213Y-106374442D01*
X117935707Y-106485936D01*
X117935711Y-106485939D01*
X118066814Y-106573540D01*
X118066827Y-106573547D01*
X118212498Y-106633885D01*
X118212503Y-106633887D01*
X118367153Y-106664649D01*
X118367156Y-106664650D01*
X118367158Y-106664650D01*
X118524844Y-106664650D01*
X118524845Y-106664649D01*
X118679497Y-106633887D01*
X118825179Y-106573544D01*
X118956289Y-106485939D01*
X119067789Y-106374439D01*
X119155394Y-106243329D01*
X119215737Y-106097647D01*
X119246500Y-105942992D01*
X119246500Y-105785308D01*
X119246500Y-105785305D01*
X119246499Y-105785303D01*
X119215738Y-105630660D01*
X119215737Y-105630653D01*
X119213913Y-105626250D01*
X119155397Y-105484977D01*
X119155390Y-105484964D01*
X119067789Y-105353861D01*
X119067786Y-105353857D01*
X118956292Y-105242363D01*
X118956288Y-105242360D01*
X118825185Y-105154759D01*
X118825172Y-105154752D01*
X118679501Y-105094414D01*
X118679489Y-105094411D01*
X118568285Y-105072291D01*
X118506374Y-105039906D01*
X118504795Y-105038355D01*
X108457071Y-94990631D01*
X108423586Y-94929308D01*
X108428570Y-94859616D01*
X108470442Y-94803683D01*
X108535906Y-94779266D01*
X108544752Y-94778950D01*
X114132650Y-94778950D01*
X114199689Y-94798635D01*
X114201541Y-94799848D01*
X114295821Y-94862844D01*
X114295823Y-94862845D01*
X114295827Y-94862847D01*
X114441498Y-94923185D01*
X114441503Y-94923187D01*
X114596153Y-94953949D01*
X114596156Y-94953950D01*
X114596158Y-94953950D01*
X114753844Y-94953950D01*
X114753845Y-94953949D01*
X114908497Y-94923187D01*
X115054179Y-94862844D01*
X115185289Y-94775239D01*
X115296789Y-94663739D01*
X115384394Y-94532629D01*
X115444737Y-94386947D01*
X115475500Y-94232292D01*
X115475500Y-94104502D01*
X115495185Y-94037463D01*
X115547989Y-93991708D01*
X115617147Y-93981764D01*
X115680703Y-94010789D01*
X115687169Y-94016810D01*
X117119276Y-95448917D01*
X118149205Y-96478846D01*
X118182690Y-96540169D01*
X118183141Y-96542336D01*
X118205261Y-96653539D01*
X118205264Y-96653551D01*
X118265602Y-96799222D01*
X118265609Y-96799235D01*
X118353210Y-96930338D01*
X118353213Y-96930342D01*
X118464707Y-97041836D01*
X118464711Y-97041839D01*
X118595814Y-97129440D01*
X118595827Y-97129447D01*
X118733345Y-97186408D01*
X118741503Y-97189787D01*
X118896153Y-97220549D01*
X118896156Y-97220550D01*
X118896158Y-97220550D01*
X119053844Y-97220550D01*
X119053845Y-97220549D01*
X119208497Y-97189787D01*
X119354179Y-97129444D01*
X119485289Y-97041839D01*
X119596789Y-96930339D01*
X119684394Y-96799229D01*
X119744737Y-96653547D01*
X119775500Y-96498892D01*
X119775500Y-96341208D01*
X119775500Y-96341205D01*
X119775499Y-96341203D01*
X119744738Y-96186560D01*
X119744737Y-96186553D01*
X119710695Y-96104367D01*
X119684397Y-96040877D01*
X119684390Y-96040864D01*
X119596789Y-95909761D01*
X119596786Y-95909757D01*
X119485292Y-95798263D01*
X119485288Y-95798260D01*
X119354185Y-95710659D01*
X119354172Y-95710652D01*
X119208501Y-95650314D01*
X119208489Y-95650311D01*
X119097286Y-95628191D01*
X119035375Y-95595806D01*
X119033796Y-95594255D01*
X115414127Y-91974586D01*
X115377808Y-91938267D01*
X141212472Y-91938267D01*
X141212472Y-91938268D01*
X147682499Y-98408296D01*
X154152527Y-91938269D01*
X154111714Y-91897456D01*
X153648985Y-91491653D01*
X153160725Y-91116998D01*
X152649013Y-90775083D01*
X152648988Y-90775067D01*
X152116003Y-90467348D01*
X151564027Y-90195144D01*
X150995432Y-89959624D01*
X150995421Y-89959620D01*
X150412647Y-89761794D01*
X150412639Y-89761792D01*
X149818154Y-89602500D01*
X149818136Y-89602496D01*
X149214547Y-89482435D01*
X149214536Y-89482433D01*
X148604360Y-89402102D01*
X147990213Y-89361850D01*
X147374787Y-89361850D01*
X146760639Y-89402102D01*
X146150463Y-89482433D01*
X146150452Y-89482435D01*
X145546863Y-89602496D01*
X145546845Y-89602500D01*
X144952360Y-89761792D01*
X144952352Y-89761794D01*
X144369578Y-89959620D01*
X144369567Y-89959624D01*
X143800972Y-90195144D01*
X143248996Y-90467348D01*
X142716011Y-90775067D01*
X142715986Y-90775083D01*
X142204274Y-91116998D01*
X141716014Y-91491653D01*
X141253291Y-91897451D01*
X141253262Y-91897478D01*
X141212472Y-91938267D01*
X115377808Y-91938267D01*
X107734193Y-84294653D01*
X107700708Y-84233330D01*
X107700287Y-84231314D01*
X107678137Y-84119953D01*
X107623347Y-83987677D01*
X107617797Y-83974277D01*
X107617790Y-83974264D01*
X107530189Y-83843161D01*
X107530186Y-83843157D01*
X107498492Y-83811463D01*
X107465007Y-83750140D01*
X107469991Y-83680448D01*
X107511863Y-83624515D01*
X107517282Y-83620680D01*
X107585289Y-83575239D01*
X107696786Y-83463742D01*
X107696789Y-83463739D01*
X107784394Y-83332629D01*
X107844737Y-83186947D01*
X107875500Y-83032292D01*
X107875500Y-82874608D01*
X107875500Y-82874605D01*
X107875499Y-82874603D01*
X107855443Y-82773775D01*
X107844737Y-82719953D01*
X107820507Y-82661455D01*
X107784397Y-82574277D01*
X107784390Y-82574264D01*
X107696789Y-82443161D01*
X107696786Y-82443157D01*
X107585292Y-82331663D01*
X107585288Y-82331660D01*
X107454185Y-82244059D01*
X107454172Y-82244052D01*
X107308501Y-82183714D01*
X107308489Y-82183711D01*
X107153845Y-82152950D01*
X107153842Y-82152950D01*
X106996158Y-82152950D01*
X106891551Y-82173757D01*
X106821960Y-82167529D01*
X106766783Y-82124665D01*
X106743539Y-82058775D01*
X106759607Y-81990778D01*
X106779675Y-81964464D01*
X108451371Y-80292769D01*
X108512694Y-80259284D01*
X108539052Y-80256450D01*
X148728648Y-80256450D01*
X148795687Y-80276135D01*
X148816329Y-80292769D01*
X152949205Y-84425645D01*
X152982690Y-84486968D01*
X152983141Y-84489135D01*
X153005261Y-84600339D01*
X153005264Y-84600351D01*
X153065602Y-84746022D01*
X153065609Y-84746035D01*
X153153210Y-84877138D01*
X153153213Y-84877142D01*
X153264707Y-84988636D01*
X153264711Y-84988639D01*
X153395814Y-85076240D01*
X153395827Y-85076247D01*
X153541498Y-85136585D01*
X153541503Y-85136587D01*
X153696153Y-85167349D01*
X153696156Y-85167350D01*
X153696158Y-85167350D01*
X153853844Y-85167350D01*
X153853845Y-85167349D01*
X154008497Y-85136587D01*
X154154179Y-85076244D01*
X154285289Y-84988639D01*
X154396789Y-84877139D01*
X154484394Y-84746029D01*
X154544737Y-84600347D01*
X154575500Y-84445692D01*
X154575500Y-84288008D01*
X154575500Y-84288005D01*
X154575499Y-84288003D01*
X154564624Y-84233330D01*
X154544737Y-84133353D01*
X154539185Y-84119949D01*
X154484397Y-83987677D01*
X154484390Y-83987664D01*
X154396789Y-83856561D01*
X154396786Y-83856557D01*
X154285292Y-83745063D01*
X154285288Y-83745060D01*
X154154185Y-83657459D01*
X154154172Y-83657452D01*
X154008501Y-83597114D01*
X154008489Y-83597111D01*
X153897285Y-83574991D01*
X153835374Y-83542606D01*
X153833795Y-83541055D01*
X149532250Y-79239510D01*
X149524960Y-79232220D01*
X149524958Y-79232217D01*
X149437833Y-79145092D01*
X149386609Y-79110865D01*
X149335386Y-79076638D01*
X149335383Y-79076636D01*
X149335380Y-79076635D01*
X149261703Y-79046118D01*
X149261701Y-79046117D01*
X149254892Y-79043297D01*
X149221552Y-79029487D01*
X149161129Y-79017468D01*
X149156406Y-79016528D01*
X149156404Y-79016528D01*
X149100710Y-79005450D01*
X149100707Y-79005450D01*
X149100706Y-79005450D01*
X108290206Y-79005450D01*
X108166993Y-79005450D01*
X108166989Y-79005450D01*
X108111297Y-79016528D01*
X108106571Y-79017468D01*
X108063343Y-79026066D01*
X108046146Y-79029487D01*
X107932316Y-79076637D01*
X107932307Y-79076642D01*
X107829868Y-79145090D01*
X107786305Y-79188653D01*
X107742742Y-79232217D01*
X107742739Y-79232220D01*
X104508703Y-82466255D01*
X104447380Y-82499740D01*
X104445214Y-82500191D01*
X104334008Y-82522311D01*
X104333998Y-82522314D01*
X104188327Y-82582652D01*
X104188314Y-82582659D01*
X104057211Y-82670260D01*
X104057207Y-82670263D01*
X103987181Y-82740290D01*
X103925858Y-82773775D01*
X103856166Y-82768791D01*
X103800233Y-82726919D01*
X103775816Y-82661455D01*
X103775500Y-82652609D01*
X103775500Y-80755664D01*
X103775579Y-80751238D01*
X103793149Y-80259284D01*
X103793176Y-80258523D01*
X103793807Y-80249714D01*
X103846273Y-79761715D01*
X103847532Y-79752954D01*
X103934674Y-79269953D01*
X103936556Y-79261303D01*
X104057938Y-78785736D01*
X104060423Y-78777272D01*
X104215423Y-78311571D01*
X104218512Y-78303289D01*
X104406335Y-77849847D01*
X104410012Y-77841796D01*
X104466837Y-77728272D01*
X104629714Y-77402886D01*
X104633931Y-77395162D01*
X104884401Y-76973016D01*
X104889155Y-76965619D01*
X105169095Y-76562428D01*
X105174371Y-76555381D01*
X105482370Y-76173177D01*
X105488130Y-76166530D01*
X105822595Y-75807289D01*
X105828839Y-75801045D01*
X106188080Y-75466580D01*
X106194727Y-75460820D01*
X106576931Y-75152821D01*
X106583978Y-75147545D01*
X106987169Y-74867605D01*
X106994566Y-74862851D01*
X107416712Y-74612381D01*
X107424436Y-74608164D01*
X107749822Y-74445287D01*
X107863346Y-74388462D01*
X107871397Y-74384785D01*
X107895281Y-74374892D01*
X108324850Y-74196957D01*
X108333121Y-74193873D01*
X108798822Y-74038873D01*
X108807286Y-74036388D01*
X109282866Y-73915003D01*
X109291490Y-73913126D01*
X109774508Y-73825981D01*
X109783265Y-73824723D01*
X110271264Y-73772257D01*
X110280073Y-73771626D01*
X110772788Y-73754028D01*
X110777214Y-73753950D01*
X110840892Y-73753950D01*
X184709108Y-73753950D01*
X184772786Y-73753950D01*
X184777211Y-73754028D01*
G37*
%TD.AperFunction*%
%TA.AperFunction,Conductor*%
G36*
X108141074Y-86471411D02*
G01*
X108149238Y-86478878D01*
X114811628Y-93141269D01*
X114845113Y-93202592D01*
X114840129Y-93272284D01*
X114798257Y-93328217D01*
X114732793Y-93352634D01*
X114723947Y-93352950D01*
X114596155Y-93352950D01*
X114441510Y-93383711D01*
X114441498Y-93383714D01*
X114295827Y-93444052D01*
X114295815Y-93444059D01*
X114201541Y-93507052D01*
X114134864Y-93527930D01*
X114132650Y-93527950D01*
X107682148Y-93527950D01*
X107615109Y-93508265D01*
X107594467Y-93491631D01*
X106136819Y-92033983D01*
X106103334Y-91972660D01*
X106100500Y-91946302D01*
X106100500Y-87062902D01*
X106106738Y-87041656D01*
X106108318Y-87019568D01*
X106116390Y-87008784D01*
X106120185Y-86995863D01*
X106136918Y-86981363D01*
X106150190Y-86963635D01*
X106162810Y-86958927D01*
X106172989Y-86950108D01*
X106194906Y-86946956D01*
X106215654Y-86939218D01*
X106228814Y-86942080D01*
X106242147Y-86940164D01*
X106262290Y-86949363D01*
X106283927Y-86954070D01*
X106301652Y-86967338D01*
X106305703Y-86969189D01*
X106312181Y-86975221D01*
X106449205Y-87112245D01*
X106482690Y-87173568D01*
X106483141Y-87175735D01*
X106505261Y-87286939D01*
X106505264Y-87286951D01*
X106565602Y-87432622D01*
X106565609Y-87432635D01*
X106653210Y-87563738D01*
X106653213Y-87563742D01*
X106764707Y-87675236D01*
X106764711Y-87675239D01*
X106895814Y-87762840D01*
X106895827Y-87762847D01*
X107041498Y-87823185D01*
X107041503Y-87823187D01*
X107196153Y-87853949D01*
X107196156Y-87853950D01*
X107196158Y-87853950D01*
X107353844Y-87853950D01*
X107353845Y-87853949D01*
X107508497Y-87823187D01*
X107654179Y-87762844D01*
X107785289Y-87675239D01*
X107896789Y-87563739D01*
X107984394Y-87432629D01*
X108044737Y-87286947D01*
X108075500Y-87132292D01*
X108075500Y-86974608D01*
X108075500Y-86974605D01*
X108075499Y-86974603D01*
X108044738Y-86819960D01*
X108044737Y-86819953D01*
X108021370Y-86763540D01*
X107984397Y-86674277D01*
X107984390Y-86674264D01*
X107958455Y-86635450D01*
X107937577Y-86568773D01*
X107956061Y-86501393D01*
X108008040Y-86454702D01*
X108077010Y-86443526D01*
X108141074Y-86471411D01*
G37*
%TD.AperFunction*%
%TA.AperFunction,Conductor*%
G36*
X107114103Y-85444189D02*
G01*
X107120581Y-85450221D01*
X107849571Y-86179211D01*
X107883056Y-86240534D01*
X107878072Y-86310226D01*
X107836200Y-86366159D01*
X107770736Y-86390576D01*
X107702463Y-86375724D01*
X107692999Y-86369994D01*
X107654185Y-86344059D01*
X107654172Y-86344052D01*
X107508501Y-86283714D01*
X107508489Y-86283711D01*
X107397285Y-86261591D01*
X107335374Y-86229206D01*
X107333795Y-86227655D01*
X106945219Y-85839079D01*
X106930515Y-85812151D01*
X106913923Y-85786333D01*
X106913031Y-85780132D01*
X106911734Y-85777756D01*
X106908900Y-85751398D01*
X106908900Y-85537902D01*
X106928585Y-85470863D01*
X106981389Y-85425108D01*
X107050547Y-85415164D01*
X107114103Y-85444189D01*
G37*
%TD.AperFunction*%
%TD*%
M02*
