M48
; DRILL file KiCad 10.0.3 date 2026-06-12T11:32:32
; FORMAT={-:-/ absolute / metric / decimal}
; #@! TF.CreationDate,2026-06-12T11:32:32-05:00
; #@! TF.GenerationSoftware,Kicad,Pcbnew,10.0.3
; #@! TF.FileFunction,Plated,1,2,PTH
FMAT,2
METRIC
; #@! TA.AperFunction,Plated,PTH,ViaDrill
T1C0.300
%
G90
G05
T1
X104.389Y-98.639
X104.567Y-83.292
X105.475Y-86.253
X106.908Y-84.353
X107.075Y-82.953
X107.275Y-87.053
X107.3Y-85.629
X113.775Y-108.053
X114.675Y-94.153
X117.375Y-108.78
X117.67Y-113.859
X117.938Y-112.149
X118.175Y-111.154
X118.446Y-105.864
X118.975Y-96.42
X138.107Y-97.265
X140.898Y-105.309
X144.822Y-111.07
X145.772Y-115.138
X145.776Y-82.301
X151.575Y-110.953
X153.775Y-84.367
X155.318Y-105.972
M30
